<?xml version="1.0" standalone="no"?>
<!DOCTYPE svg PUBLIC "-//W3C//DTD SVG 20010904//EN"
 "http://www.w3.org/TR/2001/REC-SVG-20010904/DTD/svg10.dtd">
<svg version="1.0" xmlns="http://www.w3.org/2000/svg"
 width="118.000000pt" height="118.000000pt" viewBox="0 0 118.000000 118.000000"
 preserveAspectRatio="xMidYMid meet">

<g transform="translate(0.000000,118.000000) scale(0.100000,-0.100000)"
fill="#000000" stroke="none">
<path d="M521 1153 c-13 -3 -31 -11 -38 -19 -8 -8 -21 -14 -29 -14 -10 0 -14
-15 -14 -59 0 -33 3 -62 8 -64 12 -7 166 14 179 25 7 5 23 33 37 61 l24 52
-31 7 c-53 11 -111 16 -136 11z"/>
<path d="M854 1038 c-5 -24 -7 -56 -4 -73 5 -28 9 -30 51 -33 41 -3 47 -6 52
-27 6 -32 -15 -48 -52 -40 -43 9 -47 -10 -9 -48 43 -44 102 -144 101 -169 -1
-13 3 -18 13 -14 8 3 14 1 14 -4 0 -6 8 -10 18 -10 10 0 22 -4 27 -9 6 -5 29
-11 53 -14 l43 -5 -6 56 c-9 78 -32 156 -56 185 -10 14 -19 30 -19 36 0 24
-105 143 -155 176 -28 19 -54 35 -57 35 -2 0 -9 -19 -14 -42z"/>
<path d="M628 729 c-29 -17 -20 -73 18 -115 6 -7 27 -15 46 -19 43 -8 62 11
60 62 -3 66 -69 105 -124 72z m72 -39 c-20 -13 -33 -13 -25 0 3 6 14 10 23 10
15 0 15 -2 2 -10z"/>
<path d="M216 628 c-34 -39 -35 -43 -19 -60 9 -10 22 -18 28 -18 7 0 15 -8 17
-18 4 -15 15 -18 61 -17 69 2 87 16 87 67 0 54 -37 88 -96 88 -37 0 -47 -5
-78 -42z"/>
<path d="M466 479 c-24 -19 -25 -22 -12 -41 8 -11 25 -26 38 -32 43 -22 35
-54 -27 -110 -55 -50 -56 -51 -39 -75 15 -21 21 -23 75 -17 84 10 145 39 158
76 9 26 7 33 -11 50 -12 11 -29 20 -37 20 -8 0 -25 10 -37 21 -22 20 -22 24
-9 57 26 60 21 72 -29 72 -29 0 -52 -7 -70 -21z m79 -19 c-3 -5 -13 -10 -21
-10 -8 0 -12 5 -9 10 3 6 13 10 21 10 8 0 12 -4 9 -10z"/>
</g>
</svg>
