<?xml version="1.0" standalone="no"?>
<!DOCTYPE svg PUBLIC "-//W3C//DTD SVG 20010904//EN"
 "http://www.w3.org/TR/2001/REC-SVG-20010904/DTD/svg10.dtd">
<svg version="1.0" xmlns="http://www.w3.org/2000/svg"
 width="27.000000pt" height="28.000000pt" viewBox="0 0 27.000000 28.000000"
 preserveAspectRatio="xMidYMid meet">

<g transform="translate(0.000000,28.000000) scale(0.100000,-0.100000)"
fill="#000000" stroke="none">
<path d="M205 190 l-59 -60 -61 57 -60 58 53 -55 c28 -31 52 -60 52 -66 0 -5
-25 -34 -55 -64 -30 -29 -52 -56 -49 -59 2 -3 31 22 64 54 l60 59 63 -59 62
-60 -60 62 -59 63 59 60 c32 33 57 62 54 64 -3 3 -32 -21 -64 -54z"/>
</g>
</svg>
