<?xml version="1.0" standalone="no"?>
<!DOCTYPE svg PUBLIC "-//W3C//DTD SVG 20010904//EN"
 "http://www.w3.org/TR/2001/REC-SVG-20010904/DTD/svg10.dtd">
<svg version="1.0" xmlns="http://www.w3.org/2000/svg"
 width="50.000000pt" height="50.000000pt" viewBox="0 0 50.000000 50.000000"
 preserveAspectRatio="xMidYMid meet">

<g transform="translate(0.000000,50.000000) scale(0.100000,-0.100000)"
fill="#000000" stroke="none">
<path d="M123 328 c-13 -6 -23 -17 -23 -25 0 -12 4 -11 22 1 12 9 35 16 50 16
16 0 28 5 28 10 0 13 -49 12 -77 -2z"/>
<path d="M300 330 c0 -5 12 -10 28 -10 15 0 38 -7 50 -16 18 -12 22 -13 22 -1
0 8 -11 19 -25 25 -32 15 -75 16 -75 2z"/>
</g>
</svg>
