<?xml version="1.0" standalone="no"?>
<!DOCTYPE svg PUBLIC "-//W3C//DTD SVG 20010904//EN"
 "http://www.w3.org/TR/2001/REC-SVG-20010904/DTD/svg10.dtd">
<svg version="1.0" xmlns="http://www.w3.org/2000/svg"
 width="54.000000pt" height="54.000000pt" viewBox="0 0 54.000000 54.000000"
 preserveAspectRatio="xMidYMid meet">

<g transform="translate(0.000000,54.000000) scale(0.100000,-0.100000)"
fill="#000000" stroke="none">
<path d="M120 381 c0 -5 15 -12 33 -16 l32 -7 -33 -8 c-65 -15 -57 -33 11 -24
52 7 60 24 25 48 -24 17 -68 22 -68 7z"/>
<path d="M352 374 c-35 -24 -27 -41 25 -48 68 -9 76 9 11 24 l-33 8 33 7 c17
4 32 11 32 16 0 15 -44 10 -68 -7z"/>
<path d="M90 196 c0 -43 106 -105 181 -106 59 0 143 43 171 88 l20 32 -186 0
c-150 0 -186 -3 -186 -14z"/>
</g>
</svg>
