<?xml version="1.0" standalone="no"?>
<!DOCTYPE svg PUBLIC "-//W3C//DTD SVG 20010904//EN"
 "http://www.w3.org/TR/2001/REC-SVG-20010904/DTD/svg10.dtd">
<svg version="1.0" xmlns="http://www.w3.org/2000/svg"
 width="50.000000pt" height="50.000000pt" viewBox="0 0 50.000000 50.000000"
 preserveAspectRatio="xMidYMid meet">

<g transform="translate(0.000000,50.000000) scale(0.100000,-0.100000)"
fill="#000000" stroke="none">
<path d="M134 336 c-10 -25 0 -61 18 -64 25 -5 46 42 28 63 -16 19 -39 19 -46
1z m46 -10 c0 -3 -4 -8 -10 -11 -5 -3 -10 -1 -10 4 0 6 5 11 10 11 6 0 10 -2
10 -4z"/>
<path d="M320 335 c-10 -12 -10 -21 -1 -41 14 -31 45 -28 49 5 2 14 0 21 -6
17 -6 -4 -13 -2 -17 4 -3 5 1 10 10 10 9 0 13 5 10 10 -9 15 -31 12 -45 -5z"/>
<path d="M110 206 c0 -14 14 -41 31 -61 60 -68 158 -68 218 0 28 33 45 95 21
80 -5 -3 -10 -14 -10 -24 0 -50 -91 -98 -154 -80 -39 11 -86 54 -86 80 0 10
-4 21 -10 24 -6 3 -10 -5 -10 -19z"/>
</g>
</svg>
